<?xml version="1.0" standalone="no"?>
<!DOCTYPE svg PUBLIC "-//W3C//DTD SVG 20010904//EN"
 "http://www.w3.org/TR/2001/REC-SVG-20010904/DTD/svg10.dtd">
<svg version="1.0" xmlns="http://www.w3.org/2000/svg"
 width="300.000000pt" height="108.000000pt" viewBox="0 0 300.000000 108.000000"
 preserveAspectRatio="xMidYMid meet">
<metadata>
Created by potrace 1.10, written by Peter Selinger 2001-2011
</metadata>
<g transform="translate(0.000000,108.000000) scale(0.100000,-0.100000)"
fill="#000000" stroke="none">
<path d="M100 881 c0 -2 100 -156 223 -342 l222 -338 93 -1 c50 0 92 2 92 5 0
3 -56 90 -125 193 l-125 188 96 144 c52 80 97 147 99 150 2 3 -40 4 -93 3
l-97 -2 -47 -73 c-26 -40 -49 -73 -52 -73 -2 0 -26 33 -53 73 l-48 74 -93 1
c-50 1 -92 0 -92 -2z m179 -43 c11 -13 35 -45 53 -72 19 -27 39 -51 46 -54 13
-4 45 30 95 98 32 44 35 45 90 46 31 1 57 -1 57 -4 0 -9 -64 -107 -72 -110 -5
-2 -8 -8 -8 -12 0 -5 -18 -35 -40 -66 -22 -32 -40 -66 -40 -76 0 -10 26 -58
59 -106 32 -48 82 -123 111 -167 l52 -80 -43 -3 c-84 -6 -69 -24 -381 453
-122 186 -117 171 -53 174 46 2 57 -2 74 -21z"/>
<path d="M770 545 l0 -345 87 0 86 0 -6 208 c-4 114 -10 225 -13 247 -13 76 8
26 88 -214 l79 -241 53 0 53 0 71 208 c38 114 73 222 77 239 9 45 30 56 22 12
-4 -19 -9 -130 -13 -246 l-7 -213 81 0 82 0 0 345 0 346 -107 -3 -107 -3 -77
-235 c-42 -129 -79 -228 -82 -220 -17 47 -137 439 -137 448 0 9 -35 12 -115
12 l-115 0 0 -345z m242 199 c21 -64 35 -120 32 -125 -3 -5 -1 -9 4 -9 5 0 12
-10 15 -22 9 -36 46 -141 59 -165 14 -27 33 -30 44 -5 5 9 40 112 79 227 l70
210 86 3 86 3 1 -316 1 -315 -53 0 c-34 0 -56 5 -59 12 -4 13 -1 151 7 328 5
97 -4 133 -29 124 -15 -6 -36 -56 -85 -199 -62 -184 -83 -241 -93 -253 -6 -7
-24 -12 -40 -10 -30 3 -31 6 -102 213 -73 213 -90 255 -103 255 -27 0 -30 -30
-25 -247 l5 -224 -53 3 -54 3 -1 305 c-1 168 1 308 3 313 2 4 41 7 86 7 l82 0
37 -116z"/>
<path d="M1860 886 c0 -4 -232 -639 -245 -668 -6 -16 1 -18 82 -18 l90 0 19
68 20 67 115 3 115 3 19 -71 19 -70 88 0 c48 0 88 3 88 6 0 4 -50 140 -111
303 -60 163 -117 315 -126 339 l-16 42 -78 0 c-44 0 -79 -2 -79 -4z m187 -146
c101 -271 126 -340 154 -418 16 -46 29 -85 29 -88 0 -2 -26 -4 -58 -4 l-59 0
-18 61 c-23 75 -31 78 -162 77 -115 -1 -126 -7 -149 -85 l-15 -53 -59 0 c-65
0 -64 -2 -36 75 93 253 134 354 140 348 4 -4 4 -1 1 8 -5 14 23 100 56 172 12
27 15 28 73 25 l61 -3 42 -115z"/>
<path d="M1922 698 c-12 -15 -59 -158 -67 -202 -8 -47 5 -57 78 -61 51 -3 70
0 86 13 20 17 20 17 -13 124 -40 130 -58 157 -84 126z m28 -20 c0 -7 15 -59
34 -115 l33 -103 -73 0 c-41 0 -74 1 -74 3 0 2 13 46 30 97 16 52 30 103 30
113 0 9 5 17 10 17 6 0 10 -6 10 -12z"/>
<path d="M2360 546 l0 -346 83 0 82 0 -3 118 -4 119 99 5 c159 9 247 60 274
160 27 102 -20 204 -116 253 -58 30 -61 30 -237 33 l-178 4 0 -346z m392 291
c21 -9 51 -29 67 -44 75 -73 66 -216 -17 -274 -51 -36 -94 -47 -186 -49 -116
-2 -116 -1 -117 -123 -1 -56 -1 -105 0 -109 0 -5 -24 -8 -54 -8 l-54 0 -1 73
c0 39 -2 169 -4 287 -3 118 -2 227 1 242 5 25 10 27 57 30 100 6 270 -8 308
-25z"/>
<path d="M2527 791 c-23 -7 -27 -26 -27 -127 0 -126 1 -127 110 -122 73 3 82
6 110 33 23 24 30 40 31 75 4 95 -43 141 -145 143 -36 1 -72 0 -79 -2z m152
-35 c45 -24 66 -99 40 -148 -16 -29 -70 -48 -139 -48 l-60 0 0 105 0 105 65 0
c38 0 78 -6 94 -14z"/>
<path d="M128 348 l-96 -143 185 -3 c102 -1 188 0 191 2 4 4 -176 286 -182
286 -1 0 -45 -64 -98 -142z m167 -7 c36 -54 65 -101 65 -105 0 -3 -61 -6 -135
-6 -83 0 -135 4 -135 10 0 10 128 200 135 200 3 0 34 -44 70 -99z"/>
</g>
</svg>
