<?xml version="1.0" standalone="no"?>
<!DOCTYPE svg PUBLIC "-//W3C//DTD SVG 20010904//EN"
 "http://www.w3.org/TR/2001/REC-SVG-20010904/DTD/svg10.dtd">
<svg version="1.0" xmlns="http://www.w3.org/2000/svg"
 width="1833.000000pt" height="748.000000pt" viewBox="0 0 1833.000000 748.000000"
 preserveAspectRatio="xMidYMid meet">

<g transform="translate(0.000000,748.000000) scale(0.100000,-0.100000)"
fill="#000000" stroke="none">
<path d="M1585 7460 c-324 -15 -373 -42 -540 -295 -103 -157 -175 -280 -413
-705 -379 -678 -592 -1087 -592 -1134 0 -39 308 -579 401 -703 50 -67 72 -69
136 -10 63 58 127 156 256 391 60 111 134 238 163 283 104 159 328 556 484
858 156 302 196 351 313 392 49 17 132 18 1588 17 l1536 0 46 -27 c26 -15 59
-46 75 -70 36 -53 154 -261 220 -387 27 -52 90 -160 141 -240 124 -196 209
-367 223 -451 13 -75 15 -71 -79 -219 -112 -176 -315 -534 -418 -735 -204
-399 -757 -1335 -1017 -1722 -77 -115 -94 -134 -126 -144 -47 -15 -866 -26
-861 -12 3 8 852 1398 1611 2640 135 220 269 471 287 537 17 63 10 67 -169 86
-462 49 -1791 60 -2335 19 -155 -11 -340 -39 -387 -57 -35 -14 -64 -59 -330
-502 -504 -839 -1250 -2136 -1402 -2438 -20 -39 -82 -144 -138 -234 -56 -90
-123 -210 -148 -268 -26 -58 -59 -128 -73 -157 -15 -29 -27 -64 -27 -79 0 -38
179 -381 305 -584 237 -382 272 -441 358 -614 49 -98 135 -256 191 -350 57
-94 124 -211 149 -261 67 -130 112 -184 179 -219 52 -26 70 -29 205 -37 81 -4
508 -8 948 -8 440 0 1245 -6 1790 -12 946 -11 1288 -7 1348 17 29 11 105 131
308 491 105 186 231 399 279 473 83 129 435 722 555 936 66 119 66 108 -11
298 -135 330 -335 638 -429 662 -58 14 -75 -2 -179 -176 -147 -246 -386 -663
-536 -940 -288 -530 -473 -807 -569 -854 -21 -10 -336 -11 -1576 -5 -852 4
-1566 11 -1584 16 -32 8 -44 24 -154 213 -66 113 -185 315 -266 450 -187 314
-274 484 -267 519 13 54 120 254 247 461 73 118 166 282 206 363 61 123 948
1628 1089 1849 65 101 144 138 325 153 79 6 587 -10 596 -19 3 -2 -122 -215
-277 -471 -515 -855 -1284 -2168 -1542 -2632 -53 -95 -36 -143 57 -164 35 -8
454 -12 1372 -16 1310 -5 1322 -5 1367 15 114 51 170 124 295 384 51 107 122
234 168 303 330 492 1685 2864 1738 3043 5 18 -35 95 -191 370 -265 465 -635
1100 -681 1168 -110 163 -141 218 -178 318 -58 159 -82 177 -265 196 -193 19
-3461 45 -3795 30z"/>
<path d="M10445 5344 c-99 -6 -359 -33 -440 -46 l-75 -12 0 -1548 c0 -851 3
-1548 8 -1548 4 0 75 -7 157 -15 225 -22 557 -29 730 -16 502 38 842 168 1096
421 285 282 429 698 429 1235 0 252 -22 413 -81 610 -126 413 -421 707 -836
834 -107 33 -205 54 -328 71 -80 11 -547 21 -660 14z m495 -474 c211 -24 369
-93 496 -217 189 -184 284 -466 284 -844 0 -547 -174 -920 -504 -1079 -56 -26
-130 -55 -166 -64 -132 -31 -309 -43 -452 -29 l-68 6 0 1104 c0 874 3 1105 13
1108 19 8 175 22 247 24 36 0 103 -4 150 -9z"/>
<path d="M15445 4974 c-137 -41 -267 -79 -287 -85 l-38 -10 0 -209 0 -210
-150 0 -150 0 0 -220 0 -220 149 0 150 0 4 -642 c5 -677 6 -695 54 -840 63
-192 198 -320 393 -374 120 -34 460 -24 588 17 l32 11 0 131 c0 73 -3 176 -7
229 l-6 98 -56 -8 c-107 -14 -212 -7 -258 16 -52 27 -95 79 -119 145 -17 48
-19 95 -22 635 l-3 582 251 0 250 0 0 220 0 220 -250 0 -250 0 0 295 c0 230
-3 295 -12 294 -7 0 -125 -34 -263 -75z"/>
<path d="M13440 4500 c-126 -10 -253 -34 -375 -71 -121 -37 -265 -103 -265
-121 0 -13 101 -369 107 -377 1 -2 47 17 100 42 294 137 637 140 771 6 56 -56
84 -124 96 -240 l6 -56 -123 -7 c-420 -24 -724 -131 -912 -321 -121 -123 -186
-265 -205 -447 -37 -359 162 -665 486 -748 105 -27 279 -27 390 0 150 36 278
109 367 211 51 59 49 61 67 -66 6 -44 14 -90 17 -102 l5 -23 269 0 c304 0 276
-10 258 90 -6 30 -14 379 -18 775 -7 601 -11 732 -25 795 -90 418 -323 621
-757 660 -123 11 -118 11 -259 0z m450 -1409 c0 -171 -3 -208 -20 -264 -50
-162 -204 -265 -379 -255 -92 6 -144 30 -195 90 -51 59 -69 128 -64 242 3 73
10 101 30 141 77 150 279 240 551 244 l77 1 0 -199z"/>
<path d="M17248 4499 c-129 -10 -275 -39 -396 -78 -96 -32 -242 -97 -242 -109
0 -13 108 -374 113 -378 3 -3 33 9 66 26 137 69 349 120 496 120 78 0 184 -23
242 -52 90 -45 147 -144 159 -276 l7 -68 -159 -12 c-310 -22 -533 -82 -722
-194 -87 -51 -222 -190 -270 -278 -66 -120 -87 -210 -87 -375 0 -156 11 -206
72 -333 41 -88 148 -206 232 -256 109 -66 191 -88 341 -93 249 -9 421 53 575
206 36 36 67 62 70 60 2 -3 12 -56 21 -117 l17 -112 272 0 272 0 -8 53 c-18
111 -29 462 -29 957 0 286 -5 546 -10 585 -45 311 -178 519 -405 631 -110 54
-214 81 -360 94 -120 11 -113 11 -267 -1z m462 -1386 c0 -266 -24 -349 -125
-442 -26 -24 -72 -55 -103 -69 -49 -23 -70 -27 -152 -27 -74 0 -104 4 -135 20
-105 52 -162 168 -153 311 9 132 80 239 198 299 102 51 245 82 388 84 l82 1 0
-177z"/>
<path d="M7840 4220 l0 -240 475 0 c261 0 475 -4 475 -8 0 -4 -24 -37 -53 -73
-126 -152 -243 -313 -599 -822 l-378 -540 0 -178 0 -179 880 0 880 0 0 245 0
245 -516 2 -515 3 93 115 c139 173 195 250 572 794 l346 500 0 188 0 188 -830
0 -830 0 0 -240z"/>
</g>
</svg>
